<svg width="25" height="24" viewBox="0 0 25 24" fill="none" xmlns="http://www.w3.org/2000/svg">
<g clip-path="url(#clip0_60036_45058)">
<path d="M14.1667 3V7C14.1667 7.26522 14.272 7.51957 14.4596 7.70711C14.6471 7.89464 14.9014 8 15.1667 8H19.1667" stroke="#49454F" stroke-width="2" stroke-linecap="round" stroke-linejoin="round"/>
<path d="M17.1667 21H7.16666C6.63623 21 6.12752 20.7893 5.75245 20.4142C5.37738 20.0391 5.16666 19.5304 5.16666 19V5C5.16666 4.46957 5.37738 3.96086 5.75245 3.58579C6.12752 3.21071 6.63623 3 7.16666 3H14.1667L19.1667 8V19C19.1667 19.5304 18.956 20.0391 18.5809 20.4142C18.2058 20.7893 17.6971 21 17.1667 21Z" stroke="#49454F" stroke-width="2" stroke-linecap="round" stroke-linejoin="round"/>
<path d="M9.16666 9H10.1667" stroke="#49454F" stroke-width="2" stroke-linecap="round" stroke-linejoin="round"/>
<path d="M9.16666 13H15.1667" stroke="#49454F" stroke-width="2" stroke-linecap="round" stroke-linejoin="round"/>
<path d="M9.16666 17H15.1667" stroke="#49454F" stroke-width="2" stroke-linecap="round" stroke-linejoin="round"/>
</g>
<defs>
<clipPath id="clip0_60036_45058">
<rect width="24" height="24" fill="white" transform="translate(0.166664)"/>
</clipPath>
</defs>
</svg>
